<?xml version="1.0" encoding="UTF-8"?>
<svg width="24px" height="24px" viewBox="0 0 24 24" version="1.1" xmlns="http://www.w3.org/2000/svg" xmlns:xlink="http://www.w3.org/1999/xlink">
    <title>Icon/Light/User Default</title>
    <g id="Icon/Light/User-Default" stroke="none" stroke-width="1" fill="none" fill-rule="evenodd">
        <g id="􀉭" transform="translate(1.732910, 2.040039)" fill="#ffffff" fill-rule="nonzero">
            <path d="M9.96679688,19.9233398 C11.3271484,19.9233398 12.6088867,19.6618652 13.8120117,19.138916 C15.0151367,18.6159668 16.074707,17.8964844 16.9907227,16.9804688 C17.9067383,16.0644531 18.6245117,15.0065918 19.144043,13.8068848 C19.6635742,12.6071777 19.9233398,11.3237305 19.9233398,9.95654297 C19.9233398,8.59619141 19.6618652,7.31445312 19.138916,6.11132812 C18.6159668,4.90820312 17.8964844,3.84692383 16.9804688,2.92749023 C16.0644531,2.00805664 15.0048828,1.2902832 13.8017578,0.774169922 C12.5986328,0.258056641 11.3168945,0 9.95654297,0 C8.59619141,0 7.31616211,0.258056641 6.11645508,0.774169922 C4.91674805,1.2902832 3.85717773,2.00805664 2.93774414,2.92749023 C2.01831055,3.84692383 1.29882812,4.90820312 0.779296875,6.11132812 C0.259765625,7.31445312 0,8.59619141 0,9.95654297 C0,11.3237305 0.261474609,12.6071777 0.784423828,13.8068848 C1.30737305,15.0065918 2.02685547,16.0644531 2.94287109,16.9804688 C3.85888672,17.8964844 4.91674805,18.6159668 6.11645508,19.138916 C7.31616211,19.6618652 8.59960938,19.9233398 9.96679688,19.9233398 Z M9.96679688,18.0981445 C8.83886719,18.0981445 7.78271484,17.8879395 6.79833984,17.4675293 C5.81396484,17.0471191 4.94921875,16.4643555 4.20410156,15.7192383 C3.45898438,14.9741211 2.87792969,14.109375 2.4609375,13.125 C2.04394531,12.140625 1.83544922,11.0844727 1.83544922,9.95654297 C1.83544922,8.82861328 2.04394531,7.77246094 2.4609375,6.78808594 C2.87792969,5.80371094 3.45898438,4.93896484 4.20410156,4.19384766 C4.94921875,3.44873047 5.81225586,2.86767578 6.79321289,2.45068359 C7.77416992,2.03369141 8.82861328,1.82519531 9.95654297,1.82519531 C11.0844727,1.82519531 12.142334,2.03369141 13.130127,2.45068359 C14.1179199,2.86767578 14.984375,3.44873047 15.7294922,4.19384766 C16.4746094,4.93896484 17.0556641,5.80371094 17.4726562,6.78808594 C17.8896484,7.77246094 18.0981445,8.82861328 18.0981445,9.95654297 C18.0981445,11.0844727 17.8896484,12.140625 17.4726562,13.125 C17.0556641,14.109375 16.4746094,14.9741211 15.7294922,15.7192383 C14.984375,16.4643555 14.1196289,17.0471191 13.1352539,17.4675293 C12.1508789,17.8879395 11.0947266,18.0981445 9.96679688,18.0981445 Z M16.4985352,16.3447266 L16.4677734,16.2216797 C16.2900391,15.7431641 15.9072266,15.2783203 15.3193359,14.8271484 C14.7314453,14.3759766 13.9794922,14.005127 13.0634766,13.7145996 C12.1474609,13.4240723 11.1118164,13.2788086 9.95654297,13.2788086 C8.80810547,13.2788086 7.77758789,13.4240723 6.86499023,13.7145996 C5.95239258,14.005127 5.20214844,14.3759766 4.61425781,14.8271484 C4.02636719,15.2783203 3.63671875,15.7397461 3.4453125,16.2114258 L3.41455078,16.3447266 C4.00927734,16.9121094 4.69799805,17.395752 5.48071289,17.7956543 C6.26342773,18.1955566 7.04956055,18.4997559 7.83911133,18.708252 C8.62866211,18.916748 9.33447266,19.0209961 9.95654297,19.0209961 C10.5854492,19.0209961 11.2929688,18.916748 12.0791016,18.708252 C12.8652344,18.4997559 13.6479492,18.1972656 14.4272461,17.8007812 C15.206543,17.4042969 15.8969727,16.9189453 16.4985352,16.3447266 Z M9.95654297,11.6586914 C10.5854492,11.6655273 11.151123,11.5083008 11.6535645,11.1870117 C12.1560059,10.8657227 12.5559082,10.4282227 12.8532715,9.87451172 C13.1506348,9.32080078 13.2993164,8.6953125 13.2993164,7.99804688 C13.2993164,7.34179688 13.1506348,6.74194336 12.8532715,6.19848633 C12.5559082,5.6550293 12.1542969,5.21923828 11.6484375,4.89111328 C11.1425781,4.56298828 10.5786133,4.39892578 9.95654297,4.39892578 C9.34130859,4.39892578 8.78076172,4.56298828 8.27490234,4.89111328 C7.76904297,5.21923828 7.36743164,5.6550293 7.07006836,6.19848633 C6.77270508,6.74194336 6.62402344,7.34179688 6.62402344,7.99804688 C6.62402344,8.6953125 6.77441406,9.31738281 7.07519531,9.86425781 C7.37597656,10.4111328 7.77587891,10.8452148 8.27490234,11.1665039 C8.77392578,11.487793 9.33447266,11.6518555 9.95654297,11.6586914 Z" id="形状"></path>
        </g>
    </g>
</svg>