<?xml version="1.0" encoding="UTF-8"?>
<svg width="28px" height="28px" viewBox="0 0 28 28" version="1.1" xmlns="http://www.w3.org/2000/svg" xmlns:xlink="http://www.w3.org/1999/xlink">
    <title>Icon/Light/Clock</title>
    <g id="Icon/Light/Clock" stroke="none" stroke-width="1" fill="none" fill-rule="evenodd">
        <g id="􀹴备份" transform="translate(2.000000, 4.000000)" fill="#ffffff" fill-rule="nonzero">
            <path d="M10.1602787,20.3101045 C10.8432056,20.3101045 11.5139373,20.2404181 12.1724739,20.1010453 C12.8310105,19.9616725 13.466899,19.7595819 14.0801394,19.4947735 C13.6689895,19.0418118 13.3344948,18.5121951 13.0766551,17.9059233 C12.630662,18.0801394 12.1620209,18.2142857 11.6707317,18.3083624 C11.1794425,18.402439 10.6759582,18.4494774 10.1602787,18.4494774 C9.01045296,18.4494774 7.93379791,18.2351916 6.93031359,17.8066202 C5.92682927,17.3780488 5.04529617,16.7839721 4.28571429,16.0243902 C3.5261324,15.2648084 2.93379791,14.3832753 2.5087108,13.3797909 C2.08362369,12.3763066 1.87108014,11.2996516 1.87108014,10.1498258 C1.87108014,9 2.08362369,7.92334495 2.5087108,6.91986063 C2.93379791,5.91637631 3.5261324,5.03484321 4.28571429,4.27526132 C5.04529617,3.51567944 5.92508711,2.92334495 6.92508711,2.49825784 C7.92508711,2.07317073 9,1.86062718 10.1498258,1.86062718 C11.195122,1.86062718 12.1811847,2.03832753 13.1080139,2.39372822 C14.0348432,2.74912892 14.8658537,3.24912892 15.6010453,3.89372822 C16.3362369,4.53832753 16.9407666,5.29094077 17.4146341,6.15156794 C17.8885017,7.01219512 18.195122,7.94425087 18.3344948,8.94773519 C18.6202091,8.8989547 18.9372822,8.88327526 19.2857143,8.90069686 C19.6341463,8.91811847 19.9512195,8.95818815 20.2369338,9.02090592 C20.097561,7.75958188 19.738676,6.58362369 19.1602787,5.49303136 C18.5818815,4.40243902 17.8344948,3.44599303 16.9181185,2.62369338 C16.0017422,1.80139373 14.9686411,1.15853659 13.8188153,0.695121951 C12.6689895,0.231707317 11.445993,0 10.1498258,0 C8.75609756,0 7.44773519,0.263066202 6.22473868,0.789198606 C5.00174216,1.31533101 3.92334495,2.04703833 2.98954704,2.98432056 C2.05574913,3.92160279 1.32404181,5.00348432 0.794425087,6.22996516 C0.264808362,7.45644599 0,8.7630662 0,10.1498258 C0,11.543554 0.264808362,12.8519164 0.794425087,14.0749129 C1.32404181,15.2979094 2.05749129,16.3763066 2.99477352,17.3101045 C3.93205575,18.2439024 5.01219512,18.9773519 6.23519164,19.510453 C7.45818815,20.043554 8.76655052,20.3101045 10.1602787,20.3101045 Z M5.06968641,11.2996516 L10.1498258,11.2996516 C10.358885,11.2996516 10.5348432,11.228223 10.6777003,11.0853659 C10.8205575,10.9425087 10.8919861,10.7665505 10.8919861,10.5574913 L10.8919861,3.99303136 C10.8919861,3.79094077 10.8205575,3.6184669 10.6777003,3.47560976 C10.5348432,3.33275261 10.358885,3.26132404 10.1498258,3.26132404 C9.94076655,3.26132404 9.76655052,3.33275261 9.6271777,3.47560976 C9.48780488,3.6184669 9.41811847,3.79094077 9.41811847,3.99303136 L9.41811847,9.82578397 L5.06968641,9.82578397 C4.86062718,9.82578397 4.68641115,9.89721254 4.54703833,10.0400697 C4.40766551,10.1829268 4.33797909,10.3554007 4.33797909,10.5574913 C4.33797909,10.7665505 4.40766551,10.9425087 4.54703833,11.0853659 C4.68641115,11.228223 4.86062718,11.2996516 5.06968641,11.2996516 Z M18.9407666,20.3832753 C19.6236934,20.3832753 20.2700348,20.2508711 20.8797909,19.9860627 C21.489547,19.7212544 22.0278746,19.3554007 22.4947735,18.8885017 C22.9616725,18.4216028 23.3292683,17.8832753 23.597561,17.2735192 C23.8658537,16.6637631 24,16.0139373 24,15.3240418 C24,14.3972125 23.771777,13.5505226 23.315331,12.7839721 C22.858885,12.0174216 22.2456446,11.4059233 21.4756098,10.9494774 C20.7055749,10.4930314 19.8606272,10.2648084 18.9407666,10.2648084 C18.0139373,10.2648084 17.1689895,10.4930314 16.4059233,10.9494774 C15.6428571,11.4059233 15.0313589,12.0174216 14.5714286,12.7839721 C14.1114983,13.5505226 13.8815331,14.3972125 13.8815331,15.3240418 C13.8815331,16.0139373 14.0139373,16.6655052 14.2787456,17.2787456 C14.543554,17.8919861 14.9076655,18.4320557 15.3710801,18.8989547 C15.8344948,19.3658537 16.3728223,19.7299652 16.9860627,19.9912892 C17.5993031,20.2526132 18.2508711,20.3832753 18.9407666,20.3832753 Z M18.3554007,18.0627178 C18.2648084,18.0627178 18.1707317,18.043554 18.0731707,18.0052265 C17.9756098,17.966899 17.8919861,17.9094077 17.8222997,17.8327526 L16.1602787,16.0139373 C16.097561,15.9442509 16.0505226,15.8675958 16.0191638,15.7839721 C15.9878049,15.7003484 15.9721254,15.6167247 15.9721254,15.533101 C15.9721254,15.3379791 16.0383275,15.1777003 16.1707317,15.0522648 C16.3031359,14.9268293 16.4599303,14.8641115 16.641115,14.8641115 C16.7526132,14.8641115 16.8501742,14.8850174 16.9337979,14.9268293 C17.0174216,14.9686411 17.087108,15.0209059 17.1428571,15.0836237 L18.3135889,16.369338 L20.6864111,13.087108 C20.825784,12.8919861 21.0139373,12.7944251 21.2508711,12.7944251 C21.4320557,12.7944251 21.5888502,12.8571429 21.7212544,12.9825784 C21.8536585,13.1080139 21.9198606,13.2648084 21.9198606,13.4529617 C21.9198606,13.5087108 21.9076655,13.5714286 21.8832753,13.641115 C21.858885,13.7108014 21.8222997,13.7770035 21.7735192,13.8397213 L18.9094077,17.8118467 C18.7839721,17.9790941 18.5993031,18.0627178 18.3554007,18.0627178 Z" id="形状"></path>
        </g>
    </g>
</svg>