<?xml version="1.0" encoding="UTF-8"?>
<svg width="32px" height="32px" viewBox="0 0 32 32" version="1.1" xmlns="http://www.w3.org/2000/svg" xmlns:xlink="http://www.w3.org/1999/xlink">
    <title>Icon/Remind/War</title>
    <g id="Icon/Remind/War" stroke="none" stroke-width="1" fill="none" fill-rule="evenodd">
        <path d="M16,32 C18.1597796,32 20.2038567,31.5812672 22.1322314,30.7438017 C24.0606061,29.9063361 25.7630854,28.7493113 27.2396694,27.2727273 C28.7162534,25.7961433 29.8787879,24.0936639 30.7272727,22.1652893 C31.5757576,20.2369146 32,18.1818182 32,16 C32,13.0688705 31.2782369,10.3911846 29.8347107,7.96694215 C28.3911846,5.54269972 26.4517906,3.60881543 24.0165289,2.16528926 C21.5812672,0.721763085 18.9090909,-5.57776048e-13 16,-5.57776048e-13 C13.0688705,-5.57776048e-13 10.3966942,0.721763085 7.98347107,2.16528926 C5.57024793,3.60881543 3.63636364,5.54269972 2.18181818,7.96694215 C0.727272727,10.3911846 0,13.0688705 0,16 C0,18.1818182 0.418732782,20.2424242 1.25619835,22.1818182 C2.09366391,24.1212121 3.24517906,25.8292011 4.7107438,27.3057851 C6.17630854,28.7823691 7.87878788,29.9338843 9.81818182,30.7603306 C11.7575758,31.5867769 13.8181818,32 16,32 Z M16,26.3471074 C15.2286501,26.3471074 14.5730028,26.077135 14.0330579,25.5371901 C13.4931129,24.9972452 13.2231405,24.3415978 13.2231405,23.5702479 C13.2231405,22.8209366 13.4931129,22.1763085 14.0330579,21.6363636 C14.5730028,21.0964187 15.2286501,20.8264463 16,20.8264463 C16.7713499,20.8264463 17.4269972,21.0964187 17.9669421,21.6363636 C18.5068871,22.1763085 18.7768595,22.8209366 18.7768595,23.5702479 C18.7768595,24.3415978 18.5068871,24.9972452 17.9669421,25.5371901 C17.4269972,26.077135 16.7713499,26.3471074 16,26.3471074 Z M16,18.677686 C15.4049587,18.677686 14.9256198,18.4958678 14.5619835,18.1322314 C14.1983471,17.768595 14.0055096,17.3112948 13.9834711,16.7603306 L13.7190083,7.8677686 C13.6969697,7.20661157 13.8953168,6.66115702 14.3140496,6.23140496 C14.7327824,5.80165289 15.2947658,5.58677686 16,5.58677686 C16.7052342,5.58677686 17.2672176,5.80165289 17.6859504,6.23140496 C18.1046832,6.66115702 18.3030303,7.20661157 18.2809917,7.8677686 L18.0165289,16.7603306 C18.0165289,17.3112948 17.8292011,17.768595 17.4545455,18.1322314 C17.0798898,18.4958678 16.5950413,18.677686 16,18.677686 Z" id="形状" fill="#FF4A40" fill-rule="nonzero"></path>
    </g>
</svg>