<?xml version="1.0" encoding="UTF-8"?>
<svg width="28px" height="28px" viewBox="0 0 28 28" version="1.1" xmlns="http://www.w3.org/2000/svg" xmlns:xlink="http://www.w3.org/1999/xlink">
    <title>Icon/Light/Logo</title>
    <g id="Icon/Light/Logo" stroke="none" stroke-width="1" fill="none" fill-rule="evenodd">
        <g id="编组-11" transform="translate(2.000000, 3.000000)" fill="#FFFFFF" fill-rule="nonzero">
            <path d="M22.820123,11.7958 C23.4410867,13.7108118 23.3403404,15.4674528 22.3658486,16.7125744 C20.1201213,19.585092 14.0954907,18.6676339 8.90797052,14.6628566 C3.72045034,10.6580792 1.33367817,5.08415725 3.57940548,2.21163966 C5.09426395,0.272963344 8.33463231,0.0636227084 11.8754079,1.36153465 C7.52499816,-0.564399197 3.3559318,-0.502507183 1.27323037,1.90217959 C-1.69420702,5.32990495 0.701723909,12.2163017 6.62743993,17.2841654 C12.553156,22.3520291 19.7629298,23.6772464 22.7303672,20.249521 C24.4540453,18.2562341 24.3624577,15.0906396 22.820123,11.7958 Z" id="路径"></path>
            <path d="M12.9230769,15.2620786 C12.9230769,15.2620786 16.2889535,16.0294338 17.135895,14.4334791 C17.7235343,13.3274789 16.8395497,11.4847456 16.2872698,10.4147715 C15.6508008,9.18268006 14.0057476,6.00157849 13.2295249,4.49929156 C13.0426253,4.1372296 13.2867734,3.69230769 13.6757267,3.69230769 L17.6090372,3.69230769 L17.571994,3.75895591 C17.3918296,4.08499181 17.3867782,4.48668243 17.55684,4.81812224 C18.2050954,6.07182931 19.8349946,9.22230873 20.6869874,10.8741038 C21.3908075,12.2394917 21.9885495,15.5701015 18.575527,16.4851635 C16.2350726,17.1138184 12.9230769,15.2620786 12.9230769,15.2620786 Z" id="路径"></path>
        </g>
    </g>
</svg>