<?xml version="1.0" encoding="UTF-8"?>
<svg width="40px" height="44px" viewBox="0 0 40 44" version="1.1" xmlns="http://www.w3.org/2000/svg" xmlns:xlink="http://www.w3.org/1999/xlink">
    <title>编组 26</title>
    <defs>
        <linearGradient x1="17.1660226%" y1="10.4190104%" x2="83.6201344%" y2="93.376923%" id="linearGradient-1">
            <stop stop-color="#2088BB" offset="0%"></stop>
            <stop stop-color="#192887" offset="100%"></stop>
        </linearGradient>
        <linearGradient x1="17.1660226%" y1="10.4190104%" x2="83.6201344%" y2="93.376923%" id="linearGradient-2">
            <stop stop-color="#478BFF" offset="0%"></stop>
            <stop stop-color="#478BFF" offset="100%"></stop>
        </linearGradient>
        <linearGradient x1="-2.59269639%" y1="-38.4772425%" x2="78.3541504%" y2="119.709919%" id="linearGradient-3">
            <stop stop-color="#2088BB" offset="0%"></stop>
            <stop stop-color="#192887" offset="100%"></stop>
        </linearGradient>
        <linearGradient x1="-2.59269639%" y1="-38.4772425%" x2="78.3541504%" y2="119.709919%" id="linearGradient-4">
            <stop stop-color="#478BFF" offset="0%"></stop>
            <stop stop-color="#478BFF" offset="100%"></stop>
        </linearGradient>
    </defs>
    <g id="控件" stroke="none" stroke-width="1" fill="none" fill-rule="evenodd">
        <g id="编组-26" transform="translate(0.000000, 0.000000)" fill-rule="nonzero">
            <g id="编组-8">
                <path d="M28.4068302,10.908426 C28.9688329,12.6793753 28.8776525,14.3038677 27.9956897,15.4553215 C25.9631963,18.1117454 20.5106101,17.2633058 15.8156499,13.5597997 C11.1206897,9.85629358 8.96054377,4.70168644 10.9930371,2.04526251 C12.3640584,0.252428866 15.2967507,0.0588365014 18.5013263,1.25910916 C14.563992,-0.521940593 10.7907825,-0.46470459 8.90583554,1.75908249 C6.22015915,4.92894704 8.38859416,11.2972941 13.7516578,15.9839128 C19.1147215,20.6705314 25.6399204,21.8960553 28.3255968,18.7261907 C29.8856101,16.8828547 29.8027188,13.9554015 28.4068302,10.908426 Z" id="路径" fill="url(#linearGradient-2)"></path>
                <path d="M19.3849469,14.5513293 C19.3849469,14.5513293 22.698939,15.2684627 23.5328249,13.7769598 C24.1114058,12.7433449 23.2410477,11.0212146 22.6972812,10.0212679 C22.0706233,8.86981422 20.4509284,5.89690886 19.6866711,4.49294336 C19.5026525,4.15457758 19.7430371,3.73877485 20.1259947,3.73877485 L23.9986737,3.73877485 L23.9622016,3.80106109 C23.7848143,4.10575863 23.7798408,4.48115948 23.9472812,4.79090726 C24.5855438,5.96256193 26.1903183,8.90684928 27.0291777,10.450538 C27.7221485,11.7265642 28.3106764,14.8391927 24.9502653,15.6943659 C22.6458886,16.2818767 19.3849469,14.5513293 19.3849469,14.5513293 Z" id="路径" fill="url(#linearGradient-4)"></path>
                <g id="编组" transform="translate(0.000000, 22.378286)" fill="#478BFF">
                    <path d="M2.97579576,0.223118906 C2.97579576,0.223118906 3.70689655,0.128847841 3.63892573,1.08502578 C3.56763926,2.09675632 3.73176393,5.6975743 0,7.46684018 C0,7.46684018 4.25066313,7.412971 5.41942971,3.86433878 C5.95988064,2.22637903 5.84051724,2.60346329 6.183687,1.48231098 C6.38594164,0.819046707 5.93998674,0.0497274832 4.56896552,0.00427536276 C3.38196286,-0.0361265221 2.97579576,0.223118906 2.97579576,0.223118906 Z" id="路径"></path>
                    <polygon id="路径" points="7.62267905 5.88443302 5.89854111 5.88443302 7.12533156 2.19607762 8.84781167 2.19607762"></polygon>
                    <path d="M8.8693634,1.56648158 C8.45159151,1.92673172 7.88461538,1.94524925 7.60112732,1.60688346 C7.31763926,1.26851768 7.4270557,0.702891288 7.84482759,0.342641148 C8.26259947,-0.0176089915 8.8295756,-0.0361265221 9.11306366,0.302239264 C9.39655172,0.640605049 9.28713528,1.20623144 8.8693634,1.56648158 Z" id="路径"></path>
                    <path d="M16.3693634,0.223118906 C16.3693634,0.223118906 17.1004642,0.128847841 17.0324934,1.08502578 C16.9612069,2.09675632 17.1253316,5.6975743 13.3935676,7.46684018 C13.3935676,7.46684018 17.6442308,7.412971 18.8129973,3.86433878 C19.3534483,2.22637903 19.2340849,2.60346329 19.5772546,1.48231098 C19.7795093,0.819046707 19.3335544,0.0497274832 17.9625332,0.00427536276 C16.7755305,-0.0361265221 16.3693634,0.223118906 16.3693634,0.223118906 Z" id="路径"></path>
                    <polygon id="路径" points="21.0162467 5.88443302 19.2921088 5.88443302 20.5188992 2.19607762 22.2413793 2.19607762"></polygon>
                    <path d="M22.262931,1.56648158 C21.8451592,1.92673172 21.278183,1.94524925 20.994695,1.60688346 C20.7112069,1.26851768 20.8206233,0.702891288 21.2383952,0.342641148 C21.6561671,-0.0176089915 22.2231432,-0.0361265221 22.5066313,0.302239264 C22.7901194,0.640605049 22.6807029,1.20623144 22.262931,1.56648158 Z" id="路径"></path>
                    <g transform="translate(22.407417, 2.039520)">
                        <path d="M1.14861763,3.93413354 C0.750739645,3.93413354 0.450673332,3.80956106 0.24510304,3.56209951 C0.0395327484,3.31295456 -0.0367271985,2.96112148 0.0163231993,2.50323345 C0.0544531728,2.16318425 0.150607019,1.84670282 0.303126913,1.55210574 C0.455646807,1.25750867 0.644638849,0.998263238 0.871760865,0.777736283 C1.09888288,0.557209329 1.3458988,0.383817906 1.61612426,0.257562016 C1.8846919,0.131306126 2.15989084,0.0690198866 2.44006325,0.0690198866 C2.69702612,0.0690198866 2.91254336,0.111105183 3.08661498,0.193592365 C3.25902877,0.277762958 3.38170781,0.38718473 3.45133646,0.525224503 L3.48283514,0.525224503 L3.60717201,0.156557304 L4.89198633,0.156557304 L3.66353805,3.84491271 L2.34556723,3.84491271 L2.51300755,3.35840668 L2.47985105,3.35840668 C2.27593858,3.5452654 2.05710569,3.6883554 1.82335238,3.78599329 C1.58794124,3.88531459 1.36413487,3.93413354 1.14861763,3.93413354 Z M1.75040808,2.97458877 C1.87971842,2.97458877 2.02560702,2.9358703 2.19138951,2.85674994 C2.35551418,2.77762958 2.51963885,2.64464005 2.68044787,2.45778133 L3.07832585,1.30632761 C3.03024893,1.20868972 2.95564681,1.13630301 2.85286166,1.0925343 C2.75007651,1.04876559 2.65558049,1.02688124 2.57103142,1.02688124 C2.43177413,1.02688124 2.29583248,1.05886607 2.16486431,1.12283572 C2.03389614,1.18680537 1.91287492,1.27770961 1.798485,1.39554844 C1.68575291,1.51338727 1.59125689,1.65311046 1.51665476,1.81640141 C1.44205264,1.97800895 1.39231789,2.15813402 1.37076617,2.3550932 C1.3458988,2.57225334 1.36745052,2.72881064 1.43707917,2.82644853 C1.50670781,2.92576983 1.61115079,2.97458877 1.75040808,2.97458877 Z" id="形状"></path>
                        <path d="M4.92845848,3.83817906 L6.1535911,0.0925876528 L7.54119057,0.0925876528 L7.35882983,0.708716397 C7.35882983,0.708716397 8.7265354,-0.370350611 9.4907927,0.350149669 C9.66486431,0.515124032 9.72786166,0.767635812 9.69138951,1.09590113 C9.68144256,1.17838831 9.66652214,1.26760914 9.64331259,1.36524703 C9.62010304,1.46288491 9.59357784,1.55715598 9.56042134,1.64974363 L8.89231789,3.83817906 L7.28754336,3.83817906 L7.87938686,2.00157671 C8.04351153,1.43426691 7.35717201,1.25414184 7.08528872,2.00157671 L6.49012957,3.83817906 L4.92845848,3.83817906 L4.92845848,3.83817906 Z" id="路径"></path>
                        <path d="M11.2348245,5.58219376 C10.8220261,5.58219376 10.4738829,5.5316914 10.1903948,5.43068669 C9.90524893,5.32968198 9.66154866,5.20174267 9.45929402,5.04855219 L10.1522648,4.16307755 C10.2998113,4.29101685 10.4771985,4.39202157 10.6827688,4.46609169 C10.8883391,4.54016181 11.0988829,4.57719687 11.3144001,4.57719687 C11.4586309,4.57719687 11.6061773,4.56541299 11.7537237,4.54184522 C11.9012701,4.51827746 12.0405274,4.46272486 12.16818,4.37855427 C12.2974903,4.29270027 12.4035911,4.15802732 12.489798,3.9711686 L12.7218935,3.4610948 L12.6870792,3.4610948 C12.5146654,3.59913458 12.3107529,3.71023976 12.0736839,3.79609376 C11.8382728,3.88194777 11.6061773,3.92403307 11.3790553,3.92403307 C10.9198378,3.92403307 10.5783259,3.7876767 10.349546,3.51664739 C10.122424,3.24561808 10.0345593,2.88705135 10.0859518,2.4392638 C10.1273975,2.07733025 10.226867,1.74738152 10.3860182,1.45110103 C10.5451694,1.15313713 10.7441083,0.897258526 10.984493,0.681781807 C11.2232198,0.466305088 11.4834983,0.299647313 11.7653285,0.18012507 C12.0455009,0.0606028273 12.328989,0 12.612477,0 C12.8909916,0 13.1230871,0.0454521205 13.3104213,0.136356361 C13.4977556,0.227260602 13.6287237,0.346782845 13.7049837,0.494923089 L13.739798,0.494923089 L13.8757396,0.0740701222 L15.0925831,0.0959544765 L13.8193736,3.90888236 C13.6768007,4.34488603 13.4712304,4.68325182 13.2026627,4.92566313 C12.9340951,5.16807444 12.6307131,5.33809904 12.290859,5.43573692 C11.9526627,5.53337481 11.599546,5.58219376 11.2348245,5.58219376 Z M12.0057131,2.88705135 C12.1565752,2.88705135 12.3090951,2.85338312 12.461615,2.78773005 C12.6141349,2.72207699 12.7616813,2.62107228 12.9059121,2.48808274 L13.2971587,1.35514655 C13.2275301,1.24909161 13.1479545,1.16828784 13.0551163,1.11610207 C12.9622781,1.06223289 12.8545195,1.03698171 12.7334983,1.03698171 C12.622424,1.03698171 12.5047184,1.0639163 12.3754081,1.11610207 C12.2477556,1.16997125 12.1250765,1.24740819 12.0090288,1.35177973 C11.892981,1.45615127 11.7935115,1.58240716 11.7122781,1.7305474 C11.6310447,1.87868765 11.5796521,2.05207907 11.5564426,2.24903826 C11.5315752,2.47293204 11.5564426,2.63453957 11.6310447,2.73554429 C11.7056468,2.836549 11.8316415,2.88705135 12.0057131,2.88705135 Z" id="形状"></path>
                    </g>
                    <path d="M8.70855438,5.91473443 L9.933687,2.16914303 L11.3212865,2.16914303 L11.1389257,2.78527177 C11.1389257,2.78527177 12.5066313,1.70620476 13.2708886,2.42670504 C13.4449602,2.59167941 13.5079576,2.84419119 13.4714854,3.1724565 C13.4615385,3.25494368 13.446618,3.34416451 13.4234085,3.4418024 C13.4001989,3.53944029 13.3736737,3.63371135 13.3405172,3.726299 L12.6724138,5.91473443 L11.0676393,5.91473443 L11.6594828,4.07813209 C11.8236074,3.51082229 11.1372679,3.33069722 10.8653846,4.07813209 L10.2702255,5.91473443 L8.70855438,5.91473443 L8.70855438,5.91473443 Z" id="路径"></path>
                </g>
            </g>
            <g id="编组" transform="translate(0.833333, 37.500000)" fill="#478BFF">
                <path d="M0,1.66169006 L0,1.23494575 C0.33276035,1.03463721 0.522203123,0.640987359 0.569975648,0.0539962178 L1.23549635,0.0539962178 C1.20419711,0.254304768 1.16466122,0.438936996 1.1168887,0.60615109 L1.97185217,0.60615109 L1.97185217,1.10953518 L0.854963472,1.10953518 C0.665520699,1.37777446 0.380532875,1.56240669 0,1.66169006 Z M0.189442773,2.31487011 L0.189442773,1.81148602 L1.82853459,1.81148602 L1.82853459,2.31487011 L1.30633147,2.31487011 L1.30633147,3.14397333 L1.90101705,3.14397333 L1.90101705,3.64735742 L1.30633147,3.64735742 L1.30633147,4.80392157 C1.48094829,4.75340898 1.67039106,4.66109286 1.87630712,4.52697323 L1.87630712,5.0791281 C1.49577424,5.34736737 1.08394213,5.55638499 0.640810772,5.70792276 L0.640810772,3.64735742 L0.046125197,3.64735742 L0.046125197,3.14397333 L0.640810772,3.14397333 L0.640810772,2.31487011 L0.189442773,2.31487011 L0.189442773,2.31487011 Z M2.2337774,2.74335623 L2.2337774,0.381457151 L3.13651339,0.381457151 C3.18428592,0.28043197 3.21558516,0.155021399 3.23205844,0.00522544043 L3.99312419,0.00522544043 C3.97665091,0.0383198965 3.96182495,0.0888324873 3.94535167,0.156763213 C3.94535167,0.207275804 3.92228907,0.282173783 3.87451654,0.383198965 L5.22862054,0.383198965 L5.22862054,1.91599482 C5.2434465,2.48556783 4.9831686,2.76251617 4.44449219,2.74509804 L4.06395932,2.74509804 L4.06395932,3.17184234 L5.41806331,3.17184234 L5.41806331,4.68025281 C5.43288927,5.16621877 5.19567397,5.39962178 4.70477009,5.38394546 L4.34894714,5.38394546 L4.34894714,4.92933214 L4.49226472,4.92933214 C4.68170749,4.92933214 4.7690159,4.8213397 4.75418994,4.60187121 L4.75418994,3.67174281 L4.06560665,3.67174281 L4.06560665,5.80720613 L3.37702335,5.80720613 L3.37702335,3.67174281 L2.73621258,3.67174281 L2.73621258,5.35607644 L2.09375448,5.35607644 L2.09375448,3.17010053 L3.37702335,3.17010053 L3.37702335,2.74335623 L2.2337774,2.74335623 L2.2337774,2.74335623 Z M2.89929809,0.858714044 L2.89929809,1.31158555 L4.56309984,1.31158555 L4.56309984,0.858714044 L2.89929809,0.858714044 Z M2.89929809,2.23997213 L4.23033949,2.23997213 C4.46755479,2.23997213 4.5779258,2.12327063 4.56309984,1.88812581 L4.56309984,1.76271524 L2.89929809,1.76271524 L2.89929809,2.23997213 Z" id="形状"></path>
                <path d="M6.65850165,5.68179556 C7.02256124,4.94500846 7.25977654,4.13332338 7.37179487,3.24499851 L8.01260564,3.24499851 C7.94835983,4.18383597 7.7671537,4.99552105 7.46569259,5.68179556 L6.65850165,5.68179556 Z M7.2284773,1.38648353 C7.16423149,1.06773166 7.00608795,0.649696427 6.75239937,0.130636011 L7.48875519,0.130636011 C7.69467125,0.515576789 7.85281478,0.935353837 7.96483312,1.38648353 L7.2284773,1.38648353 Z M7.27624982,2.94366478 C7.19717805,2.59181845 7.03903452,2.16507415 6.8001719,1.66169006 L7.51346512,1.66169006 C7.75068042,2.13023788 7.91706059,2.558724 8.01260564,2.94366478 L7.27624982,2.94366478 Z M8.41784845,1.05902259 L8.41784845,0.506867722 L11.9118321,0.506867722 L11.9118321,1.05902259 L10.5577281,1.05902259 L10.5577281,4.90320494 L12.1259848,4.90320494 L12.1259848,5.40658903 L8.15757055,5.40658903 L8.15757055,4.90320494 L9.75053717,4.90320494 L9.75053717,1.05902259 L8.41784845,1.05902259 L8.41784845,1.05902259 Z" id="形状"></path>
                <path d="M13.200043,1.78710063 L13.200043,1.25933114 L13.6283484,1.25933114 L13.6283484,0.00348362695 L14.2938691,0.00348362695 L14.2938691,1.25933114 L14.6744019,1.25933114 L14.6744019,1.78710063 L14.2938691,1.78710063 L14.2938691,4.32492286 L14.6974645,4.17338509 L14.6974645,4.70115457 C14.3811775,4.93629939 13.857327,5.09480442 13.1292078,5.17841147 L13.1292078,4.575744 C13.3186506,4.54264955 13.4850308,4.51652234 13.6283484,4.50084602 L13.6283484,1.78710063 L13.200043,1.78710063 Z M14.4816645,5.80720613 L14.4816645,5.27943665 C14.7666523,4.96068478 14.8934966,4.44162437 14.8621974,3.7222554 L14.8621974,0.933612023 L16.7154419,0.933612023 C16.7154419,0.649696427 16.7154419,0.339653628 16.7154419,0.00348362695 L17.3809626,0.00348362695 L17.3809626,0.933612023 L17.809268,0.933612023 L17.809268,0.155021399 L18.3314711,0.155021399 L18.3314711,0.933612023 L18.6642315,0.933612023 L18.6642315,1.46138151 L17.3809626,1.46138151 C17.3957886,2.46640788 17.4369718,3.19448592 17.4995703,3.64735742 C17.689013,3.21190405 17.8471566,2.63362198 17.9756482,1.91425301 L18.616459,1.91425301 C18.3940696,3.03598089 18.0695459,3.90862944 17.6428878,4.52697323 C17.7532588,4.97984473 17.9114024,5.21324774 18.1189658,5.23066587 C18.2622833,5.24634219 18.3331185,5.1052553 18.3331185,4.80392157 L18.7614239,4.80392157 C18.7614239,5.45710162 18.5472712,5.77585349 18.1206131,5.75843535 C17.7236069,5.75843535 17.4155565,5.52329053 17.1931672,5.05474271 C16.9707778,5.27246939 16.6940266,5.50761421 16.3612663,5.75843535 L16.3612663,5.20628048 C16.6149549,4.97113566 16.8373442,4.72902359 17.026787,4.47820245 C17.0103137,4.41201354 16.9872511,4.29357022 16.9559519,4.12635613 C16.9394786,4.02533094 16.9246526,3.95043297 16.9081793,3.89992037 C16.8126343,3.21364586 16.7566251,2.40021897 16.7417992,1.46312332 L15.5293654,1.46312332 L15.5293654,2.26784115 L16.5507091,2.26784115 L16.5507091,4.35279188 C16.565535,4.85617597 16.344793,5.09828805 15.8851884,5.08086991 L15.5754906,5.08086991 L15.5754906,4.57748582 L15.7188082,4.57748582 C15.908251,4.57748582 15.9955594,4.4851697 15.9807334,4.30053747 L15.9807334,2.76774161 L15.5293654,2.76774161 L15.5293654,3.59684483 C15.5590173,4.6523838 15.211431,5.3891709 14.4816645,5.80720613 Z" id="形状"></path>
                <path d="M19.7629996,1.10953518 L19.7629996,0.557380313 L22.0198396,0.557380313 L22.0198396,0.00522544043 L22.899513,0.00522544043 L22.899513,0.557380313 L25.1810629,0.557380313 L25.1810629,1.10953518 L19.7629996,1.10953518 Z M20.1204698,5.20453867 L20.1204698,1.81322783 L22.0692594,1.81322783 L22.0692594,1.23494575 L22.8764504,1.23494575 L22.8764504,1.81322783 L24.8483025,1.81322783 L24.8483025,4.25002488 C24.8631285,4.88752862 24.5633147,5.1958296 23.9455665,5.18015328 L23.3986535,5.18015328 L23.3986535,4.62799841 L23.7544764,4.62799841 C23.9916917,4.64541654 24.1020627,4.5112969 24.0872368,4.22563949 L24.0872368,2.34099731 L22.874803,2.34099731 L22.874803,5.80894794 L22.0676121,5.80894794 L22.0676121,2.34099731 L20.8798883,2.34099731 L20.8798883,5.20628048 L20.1204698,5.20628048 L20.1204698,5.20453867 Z" id="形状"></path>
                <path d="M26.3028936,5.80720613 L26.3028936,5.22892406 C26.5088096,4.99377924 26.6043547,4.50955509 26.5878814,3.77102618 L26.5878814,0.252562954 L28.3702908,0.252562954 L28.3702908,5.05125908 C28.3851167,5.51980691 28.1643747,5.74624266 27.7047701,5.72882452 L27.3011746,5.72882452 L27.3011746,5.22544043 L27.5383899,5.22544043 C27.7130067,5.24111675 27.7920785,5.17492784 27.7756052,5.02513188 L27.7756052,3.79366975 L27.1809196,3.79366975 C27.2303395,4.70289639 26.937115,5.37175276 26.3028936,5.80720613 Z M27.182567,0.73156166 L27.182567,1.76097342 L27.7772525,1.76097342 L27.7772525,0.73156166 L27.182567,0.73156166 Z M27.182567,2.26435752 L27.182567,3.31989649 L27.7772525,3.31989649 L27.7772525,2.26435752 L27.182567,2.26435752 Z M29.5827245,5.78282074 L29.5827245,5.20453867 C29.7573414,5.12093162 29.9550208,4.95371753 30.1774101,4.70115457 C29.8594757,4.3162138 29.6304971,3.78844431 29.4888268,3.11784612 L30.106575,3.11784612 C30.216946,3.53762317 30.3520269,3.88772768 30.5101705,4.17338509 C30.6996132,3.82153877 30.8264575,3.3860854 30.8907033,2.86702498 L29.4410543,2.86702498 L29.4410543,5.80720613 L28.752471,5.80720613 L28.752471,0.278690156 L31.5084515,0.278690156 L31.5084515,1.20881855 C31.5397508,1.76097342 31.2778255,2.02224545 30.7243232,1.98740918 L30.0818651,1.98740918 L30.0818651,1.48402508 L30.4854605,1.48402508 C30.7078499,1.50144322 30.8099842,1.39170897 30.7951583,1.15656415 L30.7951583,0.804717826 L29.4410543,0.804717826 L29.4410543,2.33751369 L31.556224,2.33751369 L31.556224,2.86528317 C31.445853,3.63516473 31.2317003,4.239574 30.9137659,4.67502737 C31.0406102,4.84224147 31.2942988,5.03558276 31.6748317,5.25330945 L31.6748317,5.78107893 C31.215227,5.53025779 30.8429308,5.30382204 30.557943,5.10351349 C30.3042544,5.30556385 29.9780834,5.5319996 29.5827245,5.78282074 Z" id="形状"></path>
                <path d="M38.3333333,3.01856276 C37.1456095,2.90186125 36.2346369,2.73464716 35.6004154,2.51517866 C34.9348947,2.73290534 34.0239221,2.91753757 32.8674975,3.06733353 L32.8674975,2.61446203 C33.5956167,2.49776053 34.2529007,2.34622275 34.8393497,2.16159052 C34.4588168,1.92644571 34.1029938,1.65123918 33.7702335,1.33248731 C33.5330182,1.41609436 33.2628563,1.48402508 32.9630425,1.53279586 L32.9630425,1.13043695 C33.6285632,0.912710262 34.1112305,0.536478551 34.4126916,0 L35.2676551,0 C35.2511818,0.0330944561 35.2198825,0.0836070469 35.17211,0.151537772 C35.1408108,0.202050363 35.0930382,0.276948343 35.0287924,0.377973524 L37.8094829,0.377973524 L37.8094829,0.930128397 C37.3663515,1.48228327 36.8902736,1.89335125 36.3828964,2.16159052 C36.9050996,2.32880462 37.5557943,2.47163332 38.331686,2.58833483 L38.331686,3.01856276 L38.3333333,3.01856276 Z M32.9861051,5.83333333 L32.9861051,5.32994924 C34.0469847,5.02861551 34.625197,4.55135861 34.720742,3.89817856 L33.1755479,3.89817856 L33.1755479,3.37040908 L34.7915771,3.37040908 L34.7915771,3.31989649 L34.7915771,2.86702498 L35.5757055,2.86702498 L35.5757055,3.2188713 C35.5757055,3.23628944 35.5757055,3.26067483 35.5757055,3.29376928 C35.5592322,3.32686374 35.5526429,3.35299094 35.5526429,3.36866726 L37.7633577,3.36866726 L37.7633577,4.82656514 C37.7781836,5.42923261 37.5179057,5.72185727 36.9792293,5.70618095 L36.1242659,5.70618095 L36.1242659,5.17841147 L36.646469,5.17841147 C36.9001576,5.17841147 37.0187652,5.06170996 37.0022919,4.82656514 L37.0022919,3.89643675 L35.5048704,3.89643675 C35.4257986,4.85269235 34.5856611,5.49716333 32.9861051,5.83333333 Z M36.8606217,0.907484821 L34.5312992,0.907484821 C34.4044549,1.02418632 34.269374,1.11650244 34.1277038,1.18443316 L34.5560092,1.18443316 C34.8887695,1.45267244 35.2363558,1.67039912 35.6020627,1.83761322 C36.0122475,1.63730467 36.4323163,1.32726187 36.8606217,0.907484821 Z" id="形状"></path>
            </g>
            <g id="编组" transform="translate(0.000000, 30.833333)" fill="#478BFF">
                <g transform="translate(6.878896, 0.000000)">
                    <path d="M0.232624601,2.57461514 C0.0149420822,2.32170908 -0.0503626733,2.00282752 0.038384815,1.61482878 C0.125457822,1.22683003 0.336442417,0.907948476 0.669664118,0.655042413 C1.00288582,0.402136349 1.36959714,0.27646874 1.76979808,0.27646874 C2.07287912,0.27646874 2.32740022,0.348727615 2.53001241,0.494816211 C2.7326246,0.639333962 2.85486171,0.843543827 2.89672373,1.10587496 L2.22190792,1.10587496 C2.14823076,0.876531574 1.9606889,0.760289036 1.66095682,0.760289036 C1.4081102,0.760289036 1.18372976,0.838831291 0.989489972,0.994344958 C0.795250187,1.14985862 0.669664118,1.35878102 0.611057287,1.61639962 C0.552450455,1.87558907 0.584265592,2.08294062 0.708177179,2.23845429 C0.832088767,2.3955388 1.01963063,2.47251021 1.27247725,2.47251021 C1.57053485,2.47251021 1.80998562,2.35783852 1.99082956,2.12692429 L2.66731985,2.12692429 C2.50656968,2.38925542 2.29223612,2.59189444 2.02264469,2.73641219 C1.75472775,2.88092994 1.46839151,2.95163252 1.16363599,2.95163252 C0.760086088,2.95318882 0.450307119,2.82752121 0.232624601,2.57461514 Z" id="路径"></path>
                    <path d="M3.15459379,2.93119698 L3.62512293,0.852968897 L4.18942299,0.852968897 L3.71889386,2.93119698 L3.15459379,2.93119698 Z M4.36859245,0.323594094 C4.34849868,0.413132265 4.29826425,0.490103676 4.21621469,0.55293748 C4.1358396,0.615771285 4.04709212,0.647188187 3.95332118,0.647188187 C3.85955025,0.647188187 3.78587309,0.615771285 3.7322897,0.55293748 C3.6803808,0.490103676 3.66363599,0.41470311 3.68372976,0.323594094 C3.70382353,0.234055922 3.75405796,0.157084511 3.83610752,0.0942507069 C3.9164826,0.0314169023 4.00523009,0 4.09900102,0 C4.19444644,0 4.26644912,0.0314169023 4.3200325,0.0942507069 C4.37361589,0.158655357 4.38868622,0.234055922 4.36859245,0.323594094 Z" id="形状"></path>
                    <path d="M5.46202849,2.48821866 L5.72994543,2.48821866 L5.62947658,2.93119698 L5.27448662,2.93119698 C5.0484317,2.93119698 4.88433257,2.88250079 4.78386372,2.78510839 C4.68339486,2.68771599 4.65827765,2.52591894 4.71018656,2.30128809 L4.94126492,1.2849513 L4.70516311,1.2849513 L4.80228301,0.852968897 L5.03838481,0.852968897 L5.15559848,0.339302545 L5.71989855,0.339302545 L5.60268488,0.852968897 L6.09833123,0.852968897 L6.00121134,1.2849513 L5.50556499,1.2849513 L5.27448662,2.30128809 C5.2594163,2.36883443 5.26611422,2.41753063 5.29458039,2.44580584 C5.31969761,2.47408106 5.37662996,2.48821866 5.46202849,2.48821866 Z" id="路径"></path>
                    <polygon id="路径" points="6.85687108 2.8934967 6.4516467 0.852968897 7.08292601 0.852968897 7.31232989 2.33113415 8.24334128 0.852968897 8.83108408 0.852968897 6.75472775 3.91297518 6.16698495 3.91297518"></polygon>
                    <path d="M11.6643058,0.699026076 C11.5521156,0.699026076 11.4549957,0.725730443 11.3729461,0.779139177 C11.2892221,0.832547911 11.2373131,0.907948476 11.2172194,1.00219918 C11.1954511,1.09802074 11.205498,1.17185046 11.2440111,1.22525919 C11.2841986,1.27866792 11.3428054,1.32108074 11.421506,1.34935595 C11.5002067,1.37763117 11.5872797,1.40433553 11.6843996,1.42632736 C11.779845,1.4483192 11.8752904,1.47659441 11.9690613,1.50958216 C12.0628322,1.5425699 12.1465563,1.58184103 12.2219079,1.62896638 C12.2955851,1.67609174 12.3491685,1.74677977 12.3809836,1.83788878 C12.4127987,1.9289978 12.4127987,2.0405278 12.3843326,2.1693371 C12.3357726,2.38454288 12.2018142,2.56990261 11.9841316,2.72384543 C11.7664491,2.8793591 11.5069046,2.95633051 11.2038235,2.95633051 C10.9007425,2.95633051 10.6713386,2.88878417 10.5156119,2.75526233 C10.3598851,2.6217405 10.3079762,2.43323908 10.3632341,2.19132893 L10.9626983,2.19132893 C10.9325576,2.42067232 11.0464223,2.53691486 11.3042924,2.53691486 C11.4315529,2.53691486 11.5403942,2.50549796 11.6291417,2.44266415 C11.7178892,2.37983035 11.7748215,2.29657556 11.7982643,2.19289978 C11.821707,2.089224 11.7915663,2.00754006 11.7061678,1.94784794 C11.6207693,1.88815583 11.511928,1.84260132 11.379644,1.81275526 C11.2456856,1.78290921 11.1134016,1.74677977 10.982792,1.70436695 C10.8505081,1.66195413 10.7483647,1.58812441 10.6730131,1.48130694 C10.5976614,1.37448948 10.5809166,1.23468426 10.6211042,1.05874961 C10.6746876,0.821551995 10.8103205,0.631479736 11.0263286,0.488532831 C11.2423366,0.345585925 11.4951832,0.274897895 11.7848684,0.274897895 C12.0745536,0.274897895 12.2922361,0.336160855 12.4395904,0.460257619 C12.5869448,0.584354383 12.6405282,0.772855796 12.6003406,1.02419101 L11.9841316,1.02419101 C11.995853,0.923656927 11.9740847,0.845114672 11.9188269,0.785422557 C11.86022,0.728872133 11.776496,0.699026076 11.6643058,0.699026076 Z" id="路径"></path>
                    <path d="M13.8628992,2.96104304 C13.5397244,2.96104304 13.3002736,2.86365064 13.1411979,2.667295 C12.9837967,2.47093937 12.9402602,2.21174992 13.0139374,1.88972667 C13.0876146,1.56770342 13.2483647,1.30851398 13.4961879,1.11530003 C13.7440111,0.922086082 14.0303473,0.824693685 14.3535221,0.824693685 C14.6766969,0.824693685 14.9211712,0.918944392 15.0869448,1.10744581 C15.2527184,1.29594722 15.2996038,1.54885328 15.2276012,1.86302231 C15.2108563,1.93528118 15.1907626,2.00282752 15.1656454,2.06566133 L13.5497713,2.06566133 C13.5330265,2.20075401 13.5614927,2.30914232 13.6351698,2.39239711 C13.7105215,2.47408106 13.8193627,2.51649387 13.9633681,2.51649387 C14.1576079,2.51649387 14.318358,2.44109331 14.4456186,2.29186302 L15.0534551,2.29186302 C14.9446139,2.48978951 14.7838637,2.65001571 14.5712046,2.77568332 C14.36022,2.89820924 14.1241182,2.96104304 13.8628992,2.96104304 Z M14.5879494,1.39333962 C14.5058999,1.31008483 14.3953841,1.26924285 14.2547277,1.26924285 C14.1140714,1.26924285 13.9868108,1.31008483 13.8729461,1.39333962 C13.7590814,1.47659441 13.6787063,1.58655357 13.6284719,1.72321709 L14.6766969,1.72321709 C14.6984652,1.58498272 14.6683245,1.47502356 14.5879494,1.39333962 Z" id="形状"></path>
                    <path d="M16.647561,0.852968897 L16.5638369,1.22054665 C16.773147,0.95507383 17.0192957,0.82312284 17.302283,0.82312284 L17.1800459,1.36349356 L17.0393895,1.36349356 C16.8719414,1.36349356 16.7363085,1.40276469 16.6324906,1.48130694 C16.5286728,1.5598492 16.4566701,1.69651272 16.4114592,1.88815583 L16.1753574,2.93119698 L15.6110573,2.93119698 L16.0815864,0.852968897 L16.647561,0.852968897 L16.647561,0.852968897 Z" id="路径"></path>
                    <polygon id="路径" points="17.6070385 0.852968897 18.2065027 0.852968897 18.4107894 2.47722275 19.3468242 0.852968897 19.9462884 0.852968897 18.660287 2.93119698 17.9519816 2.93119698"></polygon>
                    <path d="M19.9864759,2.93119698 L20.457005,0.852968897 L21.0213051,0.852968897 L20.550776,2.93119698 L19.9864759,2.93119698 Z M21.2004746,0.323594094 C21.1803808,0.413132265 21.1301464,0.490103676 21.0480968,0.55293748 C20.9677217,0.615771285 20.8789742,0.647188187 20.7852033,0.647188187 C20.6914324,0.647188187 20.6177552,0.615771285 20.5641718,0.55293748 C20.5122629,0.490103676 20.4955181,0.41470311 20.5156119,0.323594094 C20.5357056,0.234055922 20.5859401,0.157084511 20.6679896,0.0942507069 C20.7483647,0.0314169023 20.8371122,0 20.9308831,0 C21.0263286,0 21.0983312,0.0314169023 21.1519146,0.0942507069 C21.205498,0.158655357 21.2205683,0.234055922 21.2004746,0.323594094 Z" id="形状"></path>
                    <path d="M21.5403942,2.66886585 C21.3813185,2.47408106 21.3394565,2.21489161 21.4131336,1.89286836 C21.4868108,1.57084511 21.6458865,1.31165567 21.8937097,1.11687088 C22.1398584,0.922086082 22.4245201,0.824693685 22.7476949,0.824693685 C23.0172864,0.824693685 23.228271,0.885956645 23.3823232,1.00848256 C23.5363754,1.13100848 23.618425,1.30537229 23.6284719,1.53000314 L23.0206353,1.53000314 C22.9871457,1.35721018 22.8632341,1.2708137 22.6472261,1.2708137 C22.4848014,1.2708137 22.344145,1.32579328 22.2269314,1.43732328 C22.1097177,1.54885328 22.0293426,1.70122526 21.9858061,1.89286836 C21.9422696,2.08608231 21.953991,2.23688344 22.0209702,2.34841345 C22.0879494,2.45994345 22.2018142,2.51492303 22.3642388,2.51492303 C22.5768979,2.51492303 22.740997,2.4269557 22.8548617,2.25259189 L23.4626983,2.25259189 C23.3488336,2.46936852 23.1864089,2.64216148 22.9754243,2.76939994 C22.7644397,2.89663839 22.5266634,2.96104304 22.2620955,2.96104304 C21.9405951,2.96104304 21.6994699,2.86365064 21.5403942,2.66886585 Z" id="路径"></path>
                    <path d="M24.8458195,2.96104304 C24.5226447,2.96104304 24.2831939,2.86365064 24.1241182,2.667295 C23.966717,2.47093937 23.9231805,2.21174992 23.9968577,1.88972667 C24.0705348,1.56770342 24.231285,1.30851398 24.4791082,1.11530003 C24.7269314,0.922086082 25.0132676,0.824693685 25.3364424,0.824693685 C25.6596172,0.824693685 25.9040914,0.918944392 26.0698651,1.10744581 C26.2356387,1.29594722 26.2825241,1.54885328 26.2105215,1.86302231 C26.1937766,1.93528118 26.1736829,2.00282752 26.1485657,2.06566133 L24.5326916,2.06566133 C24.5159468,2.20075401 24.5444129,2.30914232 24.6180901,2.39239711 C24.6934417,2.47408106 24.802283,2.51649387 24.9462884,2.51649387 C25.1405282,2.51649387 25.3012783,2.44109331 25.4285389,2.29186302 L26.0363754,2.29186302 C25.9275342,2.48978951 25.766784,2.65001571 25.5541249,2.77568332 C25.3431403,2.89820924 25.1070385,2.96104304 24.8458195,2.96104304 Z M25.5708697,1.39333962 C25.4888202,1.31008483 25.3783044,1.26924285 25.237648,1.26924285 C25.0969916,1.26924285 24.9680566,1.31008483 24.8558664,1.39333962 C24.7420017,1.47659441 24.6616266,1.58655357 24.6113922,1.72321709 L25.6596172,1.72321709 C25.6813855,1.58498272 25.6512448,1.47502356 25.5708697,1.39333962 Z" id="形状"></path>
                </g>
                <rect id="矩形" x="0" y="4.68268929" width="40" height="1"></rect>
            </g>
        </g>
    </g>
</svg>