<?xml version="1.0" encoding="UTF-8"?>
<svg width="24px" height="24px" viewBox="0 0 24 24" version="1.1" xmlns="http://www.w3.org/2000/svg" xmlns:xlink="http://www.w3.org/1999/xlink">
    <title>Icon/Light/Next</title>
    <g id="Icon/Light/Next" stroke="none" stroke-width="1" fill="none" fill-rule="evenodd">
        <g id="􀯵备份" transform="translate(3.000000, 3.000000)" fill="#FF9500" fill-rule="nonzero">
            <path d="M16.621582,1.16894531 C16.1225586,0.669921875 15.529541,0.350341797 14.8425293,0.210205078 C14.1555176,0.0700683594 13.3847656,0 12.5302734,0 L5.22949219,0 C4.38867188,0 3.62475586,0.0700683594 2.93774414,0.210205078 C2.25073242,0.350341797 1.65771484,0.669921875 1.15869141,1.16894531 C0.666503906,1.66113281 0.350341797,2.24902344 0.210205078,2.93261719 C0.0700683594,3.61621094 0,4.38183594 0,5.22949219 L0,12.5302734 C0,13.3847656 0.068359375,14.1538086 0.205078125,14.8374023 C0.341796875,15.5209961 0.659667969,16.1088867 1.15869141,16.6010742 C1.65771484,17.1000977 2.25244141,17.4196777 2.94287109,17.5598145 C3.63330078,17.6999512 4.40576172,17.7700195 5.26025391,17.7700195 L12.5302734,17.7700195 C13.3847656,17.7700195 14.1572266,17.6999512 14.8476562,17.5598145 C15.5380859,17.4196777 16.1293945,17.1000977 16.621582,16.6010742 C17.1206055,16.1088867 17.4384766,15.5209961 17.5751953,14.8374023 C17.7119141,14.1538086 17.7802734,13.3847656 17.7802734,12.5302734 L17.7802734,5.25 C17.7802734,4.38867188 17.7119141,3.61621094 17.5751953,2.93261719 C17.4384766,2.24902344 17.1206055,1.66113281 16.621582,1.16894531 Z M8.91064453,3.75292969 C9.15673828,3.75292969 9.35668945,3.82983398 9.51049805,3.98364258 C9.66430664,4.13745117 9.74121094,4.33398438 9.74121094,4.57324219 L9.74121094,9.42333984 L9.64892578,11.5356445 L10.6230469,10.3564453 L11.7612305,9.16699219 C11.9116211,9.00976562 12.1030273,8.93115234 12.3354492,8.93115234 C12.5610352,8.93115234 12.7507324,9.00463867 12.904541,9.15161133 C13.0583496,9.29858398 13.1352539,9.48486328 13.1352539,9.71044922 C13.1352539,9.92919922 13.0566406,10.1206055 12.8994141,10.284668 L9.56689453,13.6171875 C9.36181641,13.8291016 9.14306641,13.9350586 8.91064453,13.9350586 C8.68505859,13.9350586 8.46972656,13.8291016 8.26464844,13.6171875 L4.93212891,10.284668 C4.78173828,10.1274414 4.70654297,9.93603516 4.70654297,9.71044922 C4.70654297,9.48486328 4.78173828,9.29858398 4.93212891,9.15161133 C5.08251953,9.00463867 5.26708984,8.93115234 5.48583984,8.93115234 C5.71826172,8.93115234 5.90966797,9.00976562 6.06005859,9.16699219 L7.21875,10.3564453 L8.16210938,11.5253906 L8.08007812,9.42333984 L8.08007812,4.57324219 C8.08007812,4.33398438 8.15869141,4.13745117 8.31591797,3.98364258 C8.47314453,3.82983398 8.67138672,3.75292969 8.91064453,3.75292969 Z" id="形状"></path>
        </g>
    </g>
</svg>