<?xml version="1.0" encoding="UTF-8"?>
<svg width="24px" height="24px" viewBox="0 0 24 24" version="1.1" xmlns="http://www.w3.org/2000/svg" xmlns:xlink="http://www.w3.org/1999/xlink">
    <title>Icon/Light/Next2</title>
    <g id="Icon/Light/Next2" stroke="none" stroke-width="1" fill="none" fill-rule="evenodd">
        <g id="􀄩" transform="translate(6.019662, 4.098773)" fill="#ABB7CC" fill-rule="nonzero">
            <path d="M6.0189743,0 C5.78802236,0 5.59991455,0.072177887 5.45465088,0.216533661 C5.30938721,0.360889435 5.23675537,0.549883525 5.23675537,0.78351593 L5.23675537,10.8113785 L5.32780457,13.2699661 L5.8010788,13.0585556 L3.097229,10.0588608 L1.30983734,8.30648804 C1.24092356,8.23212687 1.15903982,8.17637761 1.0641861,8.13924026 C0.969332377,8.10210292 0.867388407,8.08353424 0.758354187,8.08353424 C0.537778219,8.08353424 0.356241862,8.15564728 0.213745117,8.29987335 C0.0712483724,8.44409943 0,8.62559255 0,8.84435272 C0,9.05498505 0.0807596842,9.24603271 0.242279053,9.41749573 L5.43506622,14.611969 C5.5184199,14.6998189 5.61024729,14.7651011 5.7105484,14.8078156 C5.81084951,14.85053 5.91365814,14.8718872 6.0189743,14.8718872 C6.12930552,14.8718872 6.23475138,14.85053 6.33531189,14.8078156 C6.4358724,14.7651011 6.52752686,14.6998189 6.61027527,14.611969 L11.7964478,9.41749573 C11.9629822,9.24603271 12.0462494,9.05498505 12.0462494,8.84435272 C12.0462494,8.62559255 11.9737473,8.44409943 11.828743,8.29987335 C11.6837387,8.15564728 11.5037155,8.08353424 11.2886734,8.08353424 C11.1796392,8.08353424 11.0775655,8.10210292 10.9824524,8.13924026 C10.8873393,8.17637761 10.8028183,8.23212687 10.7288895,8.30648804 L8.94824219,10.0588608 L6.22934723,13.0585556 L6.71766663,13.2699661 L6.80871582,10.8113785 L6.80871582,0.78351593 C6.80871582,0.549883525 6.73483022,0.360889435 6.58705902,0.216533661 C6.43928782,0.072177887 6.24992625,0 6.0189743,0 Z" id="路径"></path>
        </g>
    </g>
</svg>