<?xml version="1.0" encoding="UTF-8"?>
<svg width="32px" height="32px" viewBox="0 0 32 32" version="1.1" xmlns="http://www.w3.org/2000/svg" xmlns:xlink="http://www.w3.org/1999/xlink">
    <title>Icon/Remind/Secc</title>
    <g id="Icon/Remind/Secc" stroke="none" stroke-width="1" fill="none" fill-rule="evenodd">
        <g id="􀁣备份" fill="#43E0A2" fill-rule="nonzero">
            <path d="M16.0082347,32 C18.1931721,32 20.2518442,31.5800309 22.1842512,30.7400926 C24.1166581,29.9001544 25.8184937,28.7445531 27.2897581,27.2732887 C28.7610225,25.8020244 29.9138789,24.1029336 30.7483273,22.1760165 C31.5827758,20.2490993 32,18.1876823 32,15.9917653 C32,13.8068279 31.5800309,11.7481558 30.7400926,9.81574884 C29.9001544,7.88334191 28.7445531,6.17876137 27.2732887,4.70200721 C25.8020244,3.22525305 24.1001887,2.07239664 22.1677818,1.24343798 C20.2353748,0.414479328 18.1767027,0 15.9917653,0 C13.8068279,0 11.7509007,0.414479328 9.82398353,1.24343798 C7.89706639,2.07239664 6.19523074,3.22525305 4.71847658,4.70200721 C3.24172242,6.17876137 2.08612112,7.88334191 1.25167267,9.81574884 C0.417224224,11.7481558 0,13.8068279 0,15.9917653 C0,18.1876823 0.41996912,20.2490993 1.25990736,22.1760165 C2.0998456,24.1029336 3.2554469,25.8020244 4.72671127,27.2732887 C6.19797564,28.7445531 7.89706639,29.9001544 9.82398353,30.7400926 C11.7509007,31.5800309 13.8123177,32 16.0082347,32 Z M14.7962138,24 C14.4955457,24 14.2282851,23.9322799 13.9944321,23.7968397 C13.7605791,23.6613995 13.5378619,23.4582393 13.3262806,23.1873589 L9.41759465,18.3284424 C9.13919822,17.9785553 9,17.6173815 9,17.244921 C9,16.8498871 9.13084633,16.5141084 9.39253898,16.2375847 C9.65423163,15.9610609 9.97995546,15.8227991 10.3697105,15.8227991 C10.6035635,15.8227991 10.8179287,15.8735892 11.0128062,15.9751693 C11.2076837,16.0767494 11.3997773,16.2573363 11.5890869,16.51693 L14.7293987,20.5801354 L21.3608018,9.79571106 C21.6837416,9.26523702 22.0846325,9 22.5634744,9 C22.9309577,9 23.2622494,9.12133183 23.5573497,9.36399549 C23.8524499,9.60665914 24,9.9255079 24,10.3205418 C24,10.5011287 23.9582405,10.6845372 23.8747216,10.8707675 C23.7912027,11.0569977 23.6937639,11.234763 23.5824053,11.4040632 L16.1826281,23.1704289 C15.8374165,23.7234763 15.3752784,24 14.7962138,24 Z" id="形状"></path>
        </g>
    </g>
</svg>