<svg width="24" height="24" viewBox="0 0 24 24" fill="none" xmlns="http://www.w3.org/2000/svg">
<path d="M11.9614 19.9012C12.1923 19.9012 12.3804 19.829 12.5257 19.6847C12.671 19.5403 12.7436 19.3513 12.7436 19.1177L12.7436 9.08984L12.6525 6.63125L12.1793 6.84266L14.8831 9.84235L16.6705 11.5947C16.7394 11.6691 16.8213 11.7248 16.9162 11.762C17.011 11.7991 17.113 11.8177 17.222 11.8177C17.4426 11.8177 17.6241 11.7456 17.7666 11.6013C17.9091 11.4571 17.9803 11.2756 17.9803 11.0569C17.9803 10.8462 17.8996 10.6552 17.7381 10.4837L12.5453 5.28925C12.4619 5.2014 12.3701 5.13611 12.2698 5.0934C12.1695 5.05069 12.0667 5.02933 11.9614 5.02933C11.851 5.02933 11.7456 5.05069 11.645 5.0934C11.5445 5.13611 11.4528 5.2014 11.3701 5.28925L6.1839 10.4837C6.01736 10.6552 5.9341 10.8462 5.9341 11.0569C5.9341 11.2756 6.0066 11.4571 6.1516 11.6013C6.29661 11.7456 6.47663 11.8177 6.69167 11.8177C6.80071 11.8177 6.90278 11.7991 6.99789 11.762C7.09301 11.7248 7.17753 11.6691 7.25146 11.5947L9.0321 9.84235L11.751 6.84266L11.2627 6.63125L11.1716 9.08984L11.1716 19.1177C11.1716 19.3513 11.2455 19.5403 11.3933 19.6847C11.5411 19.829 11.7304 19.9012 11.9614 19.9012Z" fill="#ABB7CC"/>
</svg>
